<?xml version="1.0" standalone="no"?>
<!DOCTYPE svg PUBLIC "-//W3C//DTD SVG 20010904//EN"
 "http://www.w3.org/TR/2001/REC-SVG-20010904/DTD/svg10.dtd">
<svg version="1.0" xmlns="http://www.w3.org/2000/svg"
 width="924.000000pt" height="924.000000pt" viewBox="0 0 924.000000 924.000000"
 preserveAspectRatio="xMidYMid meet">
<metadata>
Created by potrace 1.14, written by Peter Selinger 2001-2017
</metadata>
<g transform="translate(0.000000,924.000000) scale(0.100000,-0.100000)"
fill="#000000" stroke="none">
<path d="M1547 7713 c-1 0 -193 -4 -427 -7 -409 -6 -630 -11 -940 -21 -80 -2
-153 -4 -162 -5 -17 0 -18 -166 -18 -3350 l0 -3350 2017 0 2017 0 75 58 c42
31 83 64 91 72 9 8 34 31 56 51 393 361 598 866 598 1474 0 201 -6 262 -48
480 -1 6 -5 15 -8 21 -4 6 -9 21 -12 35 -2 13 -9 35 -14 49 -5 14 -10 27 -10
30 -1 3 -8 22 -16 42 -9 21 -16 41 -16 46 0 13 -87 178 -125 237 -217 337
-572 580 -1050 721 -43 13 -92 25 -102 26 -7 1 -13 3 -13 4 0 4 90 64 96 64 8
0 196 142 238 180 109 98 201 196 258 275 4 5 18 24 31 40 48 63 183 308 188
342 2 12 9 33 25 75 7 20 16 47 19 60 36 155 55 257 61 323 12 136 6 428 -10
484 -3 9 -8 34 -11 56 -9 70 -37 185 -55 230 -4 11 -20 54 -35 95 -107 288
-333 568 -600 745 -33 22 -61 43 -63 48 -2 4 -8 7 -12 7 -5 0 -31 13 -57 28
-80 46 -231 113 -361 158 -67 24 -124 44 -127 44 -3 0 -10 3 -17 5 -16 6 -134
34 -168 41 -14 2 -36 7 -50 10 -14 3 -36 8 -50 10 -14 3 -50 9 -80 15 -56 10
-73 13 -190 23 -75 7 -120 15 -132 22 -4 3 -8 0 -8 -6 0 -6 -4 -8 -10 -5 -17
10 -190 17 -483 19 -159 0 -289 0 -290 -1z m366 -939 c40 -2 88 -6 107 -10 19
-3 51 -8 70 -9 19 -2 35 -4 35 -5 0 -1 11 -3 25 -6 80 -14 262 -69 339 -103
190 -82 363 -211 460 -341 14 -19 28 -37 32 -40 27 -24 133 -238 142 -287 2
-10 9 -38 16 -63 33 -114 45 -332 27 -479 -7 -55 -34 -189 -41 -200 -2 -4 -6
-19 -9 -34 -7 -40 -74 -191 -110 -249 -147 -236 -403 -431 -706 -537 -36 -13
-74 -27 -85 -32 -23 -9 -143 -44 -195 -55 -19 -4 -37 -8 -40 -9 -3 -1 -26 -5
-53 -9 -26 -5 -50 -12 -52 -16 -8 -13 -9 -159 -2 -167 4 -3 15 -7 25 -8 9 -1
49 -7 87 -13 39 -7 81 -14 95 -16 14 -3 25 -5 25 -6 0 -2 16 -6 60 -14 77 -15
94 -18 154 -33 36 -8 73 -17 83 -19 20 -4 28 -7 113 -29 199 -54 456 -167 560
-247 108 -83 168 -134 205 -173 84 -89 90 -96 90 -101 0 -2 15 -26 34 -53 60
-84 143 -268 160 -354 47 -228 51 -261 51 -462 -1 -140 -4 -190 -18 -255 -2
-8 -7 -31 -11 -50 -28 -132 -117 -295 -225 -412 -66 -72 -213 -188 -237 -188
-8 0 -14 -4 -14 -8 0 -15 -189 -101 -308 -141 -136 -45 -319 -85 -437 -96 -22
-2 -51 -6 -65 -9 -70 -13 -613 -21 -1117 -17 l-53 1 0 2679 0 2679 342 2 c188
0 344 3 346 5 3 2 9 2 14 -1 5 -3 42 -8 81 -10z"/>
<path d="M5106 7703 c-1 -1 -130 -5 -286 -9 -290 -7 -434 -11 -527 -14 -49 -2
-52 -4 -51 -27 2 -15 22 -41 57 -71 246 -211 422 -443 541 -711 l46 -104 79 3
c211 8 496 2 645 -14 25 -3 65 -7 90 -10 25 -3 61 -8 80 -11 19 -4 44 -8 55
-10 11 -2 31 -6 45 -9 59 -13 80 -17 82 -16 2 0 35 -11 73 -25 39 -14 77 -28
86 -30 25 -5 169 -80 212 -109 21 -14 42 -26 47 -26 4 0 10 -3 12 -8 2 -4 31
-28 65 -54 34 -25 59 -48 56 -52 -4 -3 -1 -6 6 -6 6 0 23 -12 37 -27 13 -16
33 -37 43 -48 55 -60 173 -263 186 -322 2 -10 11 -37 19 -60 9 -23 18 -57 21
-75 3 -18 8 -41 11 -51 11 -37 16 -86 18 -202 3 -130 -17 -266 -54 -383 -25
-78 -99 -232 -112 -232 -4 0 -8 -5 -8 -12 0 -29 -137 -184 -229 -258 -24 -19
-49 -41 -56 -48 -8 -6 -18 -12 -24 -12 -6 0 -11 -4 -11 -10 0 -5 -6 -10 -14
-10 -8 0 -16 -4 -18 -9 -5 -13 -200 -117 -265 -141 -31 -12 -61 -24 -67 -28
-6 -4 -13 -7 -16 -8 -3 0 -58 -17 -122 -38 -65 -21 -125 -39 -135 -41 -10 -2
-18 -4 -18 -5 0 -1 -7 -3 -15 -5 -8 -1 -42 -10 -75 -19 -63 -16 -185 -43 -232
-50 -32 -5 -115 -19 -123 -21 -3 -1 -32 -5 -65 -9 -32 -4 -68 -10 -80 -12 -11
-2 -49 -7 -84 -10 -36 -3 -68 -7 -72 -9 -7 -5 -6 -152 1 -157 3 -2 26 -14 53
-28 26 -13 47 -28 47 -32 0 -5 5 -8 10 -8 12 0 123 -80 128 -92 2 -5 8 -8 12
-8 33 0 346 -320 450 -460 14 -18 34 -45 45 -59 12 -14 32 -43 45 -63 14 -21
28 -38 33 -38 4 0 7 -5 7 -11 0 -5 24 -42 53 -82 29 -40 62 -87 72 -104 11
-18 23 -33 27 -33 4 0 8 -6 8 -14 0 -8 4 -16 8 -18 4 -1 28 -32 52 -68 25 -36
50 -68 55 -72 6 -4 6 -8 2 -8 -5 0 -2 -6 5 -14 7 -7 19 -22 26 -32 7 -11 34
-49 60 -86 26 -37 97 -139 157 -228 61 -89 116 -168 123 -175 6 -8 12 -16 12
-20 0 -3 5 -11 11 -18 9 -10 55 -77 199 -287 6 -8 44 -64 85 -123 41 -59 75
-112 75 -117 0 -4 4 -10 8 -12 4 -1 21 -23 38 -48 17 -25 55 -81 85 -125 30
-44 104 -152 164 -240 60 -88 142 -207 181 -265 l72 -105 726 -3 c399 -1 726
0 726 3 0 6 -110 160 -132 185 -7 9 -31 42 -53 75 -47 70 -48 71 -78 110 -13
17 -39 53 -57 80 -19 28 -36 52 -40 55 -3 3 -26 34 -51 70 -24 36 -46 67 -50
70 -3 3 -21 28 -40 55 -18 28 -37 51 -41 53 -5 2 -8 10 -8 18 0 8 -3 14 -8 14
-4 0 -18 18 -32 40 -14 22 -28 40 -32 40 -5 0 -8 4 -8 10 0 7 -67 103 -113
160 -7 8 -24 33 -38 55 -14 22 -55 79 -90 126 -35 48 -71 97 -79 109 -13 19
-33 47 -62 85 -24 31 -226 315 -241 338 -10 16 -25 36 -32 45 -8 9 -44 58 -79
107 -36 50 -69 95 -74 101 -5 5 -22 30 -38 55 -16 24 -35 50 -42 57 -6 8 -26
35 -44 60 -17 26 -35 49 -40 50 -4 2 -8 8 -8 14 0 6 -18 33 -40 62 -54 69 -49
63 -100 136 -24 36 -50 72 -57 80 -7 8 -76 103 -153 210 -78 107 -150 206
-160 219 -11 14 -19 26 -17 27 1 1 47 20 103 42 109 43 206 87 218 99 4 5 11
8 14 8 11 0 145 76 178 102 17 12 34 23 38 23 27 0 406 331 406 355 0 3 7 13
16 23 100 111 218 300 285 457 40 95 94 259 103 315 3 14 5 25 6 25 3 0 15 64
25 130 3 23 7 52 10 65 21 110 21 374 0 481 -3 13 -8 38 -11 54 -31 172 -125
422 -220 585 -92 158 -279 366 -424 473 -36 27 -73 55 -83 63 -9 8 -22 14 -27
14 -6 0 -10 5 -10 10 0 6 -7 10 -15 10 -8 0 -15 5 -15 10 0 6 -6 10 -14 10 -7
0 -19 7 -26 15 -7 8 -21 15 -30 15 -10 0 -20 4 -22 8 -10 28 -326 157 -430
177 -10 2 -23 7 -29 11 -11 6 -57 19 -109 30 -14 3 -41 9 -60 14 -40 10 -82
19 -125 25 -16 3 -41 7 -55 10 -14 3 -41 8 -60 11 -19 3 -46 7 -60 10 -14 2
-45 6 -70 9 -25 4 -79 10 -120 16 -41 5 -111 12 -155 14 -44 3 -98 7 -120 10
-89 10 -681 26 -689 18z"/>
</g>
</svg>
